<?xml version="1.0" standalone="no"?>
<!DOCTYPE svg PUBLIC "-//W3C//DTD SVG 20010904//EN"
 "http://www.w3.org/TR/2001/REC-SVG-20010904/DTD/svg10.dtd">
<svg version="1.0" xmlns="http://www.w3.org/2000/svg"
 width="685.000000pt" height="689.000000pt" viewBox="0 0 685.000000 689.000000"
 preserveAspectRatio="xMidYMid meet">

<g transform="translate(0.000000,689.000000) scale(0.100000,-0.100000)"
fill="#000000" stroke="none">
<path d="M2124 6881 c-33 -14 -64 -60 -64 -95 0 -47 87 -246 121 -278 62 -59
168 -15 169 70 0 44 -98 270 -125 288 -28 19 -75 25 -101 15z"/>
<path d="M2595 6872 c-24 -15 -39 -42 -78 -138 -55 -139 -58 -172 -19 -214 35
-40 85 -48 128 -21 26 16 41 42 83 151 48 120 51 134 41 165 -23 69 -93 94
-155 57z"/>
<path d="M2860 6499 c-63 -27 -125 -61 -137 -75 -56 -62 -9 -164 75 -164 51 0
249 82 280 116 24 27 30 90 12 125 -13 23 -61 49 -92 48 -13 0 -75 -22 -138
-50z"/>
<path d="M1780 6529 c-61 -24 -81 -114 -37 -163 27 -31 236 -116 284 -116 81
0 126 114 68 172 -23 23 -248 119 -277 117 -7 0 -24 -5 -38 -10z"/>
<path d="M2324 6444 c-102 -36 -174 -140 -174 -249 0 -147 112 -255 262 -255
69 0 140 28 190 73 79 73 98 207 42 307 -64 114 -200 167 -320 124z m126 -214
c11 -11 20 -27 20 -35 0 -20 -36 -55 -57 -55 -25 0 -53 30 -53 56 0 23 33 54
57 54 7 0 22 -9 33 -20z"/>
<path d="M2734 6106 c-53 -53 -41 -122 26 -156 78 -40 216 -90 247 -90 66 0
111 57 99 124 -8 43 -27 55 -168 111 -136 55 -159 56 -204 11z"/>
<path d="M1865 6076 c-123 -54 -145 -72 -145 -124 0 -32 26 -79 51 -93 38 -20
82 -12 194 36 133 56 160 79 160 136 0 34 -6 46 -33 70 -46 41 -84 37 -227
-25z"/>
<path d="M2199 5895 c-14 -7 -31 -26 -38 -42 -39 -84 -91 -227 -91 -248 0 -89
105 -137 169 -77 33 30 121 240 121 287 0 17 -12 39 -34 61 -38 38 -81 44
-127 19z"/>
<path d="M2524 5898 c-29 -13 -48 -52 -47 -91 2 -40 87 -244 115 -274 46 -49
131 -34 161 30 9 19 17 40 17 47 0 6 -23 67 -51 136 -33 80 -60 132 -77 144
-27 22 -83 26 -118 8z"/>
<path d="M2377 5590 c-19 -41 -61 -133 -95 -205 -33 -71 -89 -191 -124 -265
-59 -122 -253 -542 -483 -1045 -240 -527 -280 -611 -291 -625 -6 -8 -95 -195
-197 -415 -102 -220 -240 -517 -307 -660 -161 -346 -160 -343 -185 -400 -13
-27 -61 -131 -108 -230 -46 -99 -149 -319 -227 -490 -78 -170 -157 -341 -176
-378 -54 -109 -176 -378 -172 -381 122 -95 377 -207 643 -285 945 -276 2548
-278 3500 -4 249 71 477 167 607 255 l67 45 123 7 c698 40 1319 135 1836 282
28 9 52 20 52 26 0 5 -10 23 -22 38 -13 15 -30 40 -39 56 -9 16 -63 103 -119
194 -57 91 -137 221 -180 290 -148 240 -201 325 -219 350 -11 14 -106 167
-214 340 -107 173 -222 358 -255 410 -34 52 -103 163 -153 245 -51 83 -99 159
-106 170 -8 11 -84 133 -168 270 -85 138 -164 261 -176 275 -22 26 -83 124
-399 639 -102 165 -212 344 -246 397 l-61 96 -30 -49 c-17 -26 -97 -156 -178
-288 -474 -770 -485 -787 -499 -800 -6 -5 -38 -53 -70 -105 -109 -175 -118
-190 -122 -190 -2 0 -21 37 -41 83 -21 45 -57 120 -81 167 -24 47 -216 459
-427 915 -211 457 -395 854 -409 882 -25 52 -59 124 -127 273 -18 41 -46 100
-60 130 l-27 55 -35 -75z m223 -822 l182 -397 -61 -75 c-34 -42 -65 -76 -68
-76 -3 0 -49 43 -103 95 -135 131 -146 131 -292 -13 -48 -47 -89 -84 -92 -81
-2 2 -31 37 -64 77 l-60 73 20 42 c23 46 262 561 316 680 19 42 36 76 37 75 1
-2 84 -182 185 -400z m2075 -886 l175 -283 -19 -27 c-11 -15 -35 -42 -55 -61
l-35 -34 -58 50 c-32 28 -67 61 -78 73 -26 29 -68 50 -97 50 -34 -1 -58 -17
-142 -97 -41 -40 -79 -73 -84 -73 -5 0 -39 34 -76 75 l-68 75 153 248 c182
296 189 306 200 295 4 -4 87 -135 184 -291z m-2650 179 c121 -142 152 -142
295 3 46 47 87 86 91 86 3 0 46 -39 95 -86 147 -142 169 -143 288 -8 43 49 81
90 85 91 3 1 51 -95 105 -215 178 -388 219 -477 226 -482 3 -3 93 -194 199
-425 107 -231 197 -424 201 -430 4 -5 85 -179 180 -385 95 -206 186 -402 202
-435 29 -60 120 -255 284 -612 47 -104 104 -226 127 -273 22 -47 64 -136 93
-198 l53 -113 -57 -25 c-401 -180 -948 -290 -1607 -325 -251 -13 -935 -7
-1140 11 -460 39 -859 114 -1168 220 -130 44 -297 114 -297 123 0 5 71 158
137 297 28 58 117 249 198 425 81 176 174 376 207 445 33 69 113 240 178 380
65 140 167 361 228 490 120 258 128 275 274 595 56 121 106 227 113 235 7 8
83 169 170 358 87 188 159 342 161 342 1 0 37 -40 79 -89z m2100 -711 c135
-149 157 -150 300 -16 44 41 83 76 87 76 4 0 47 -38 97 -84 134 -125 155 -125
277 8 61 68 81 83 90 74 6 -7 118 -186 249 -398 130 -212 245 -396 255 -410
18 -25 85 -131 363 -580 77 -124 153 -245 170 -270 58 -86 497 -801 497 -809
0 -10 -270 -69 -370 -81 -41 -5 -145 -20 -230 -34 -286 -47 -911 -106 -1122
-106 -71 0 -77 2 -84 23 -3 12 -22 54 -41 92 -36 73 -319 685 -333 720 -4 11
-34 74 -65 140 -32 66 -136 291 -232 500 -96 209 -178 385 -183 390 -4 6 -22
43 -40 84 -35 81 -97 217 -111 242 -6 12 15 54 79 155 48 77 121 195 162 262
41 67 80 122 85 122 6 0 51 -45 100 -100z"/>
</g>
</svg>
